<svg width="100" height="100" viewBox="0 0 100 100" fill="none" xmlns="http://www.w3.org/2000/svg">
<path d="M10.0104 32.7365V27.8667H44.0104V32.7365H29.7552V73.2H24.2657V32.7365H10.0104Z" fill="#4333FF"/>
<path d="M66.4724 73.2H52.4827V27.8667H67.0922C71.4897 27.8667 75.2527 28.7742 78.3812 30.5893C81.5096 32.3897 83.9077 34.9795 85.5753 38.3588C87.2427 41.7235 88.0765 45.752 88.0765 50.4448C88.0765 55.167 87.2354 59.2326 85.553 62.6414C83.8707 66.0355 81.4211 68.6475 78.204 70.4774C74.9871 72.2924 71.0765 73.2 66.4724 73.2ZM57.9724 68.3302H66.1182C69.8665 68.3302 72.9728 67.6071 75.4371 66.161C77.9016 64.7147 79.7388 62.6562 80.9489 59.9851C82.1589 57.3142 82.764 54.1341 82.764 50.4448C82.764 46.7851 82.1663 43.6345 80.9711 40.9929C79.7758 38.3367 77.9901 36.3003 75.6143 34.8836C73.2383 33.4522 70.2797 32.7365 66.738 32.7365H57.9724V68.3302Z" fill="black"/>
</svg>
